<svg xmlns="http://www.w3.org/2000/svg" viewBox="0 0 211.92 28.25"><title>icon-logo-black</title><polygon points="25.77 7.68 25.77 3.39 24.82 3.39 24.82 6.74 7.29 6.74 7.29 10.32 4.81 10.32 4.81 4.26 22.34 4.26 22.34 0.43 0 0.43 0 24.43 22.62 24.43 22.62 20.57 8.24 20.57 8.24 17.61 20.21 17.61 20.21 13.28 19.27 13.28 19.27 16.67 7.29 16.67 7.29 20.57 4.81 20.57 4.81 14.19 16.79 14.19 16.79 10.32 8.24 10.32 8.24 7.68 25.77 7.68"/><polygon points="26.05 27.86 26.05 23.52 25.1 23.52 25.1 26.91 2.96 26.91 2.96 27.86 26.05 27.86"/><polygon points="59.9 27.86 48.55 3.19 47.69 3.59 58.44 26.91 54.03 26.91 54.03 27.86 59.9 27.86"/><path d="M49.77,24.43l-1.42-3H38.7L36,27.86h-5V26.91h4.33l2.68-6.46h9.85L46.77,18H35.43l-2.68,6.46H28.1l10.68-24h5.08l11,24H49.77ZM43.5,10.72L42,14.11H45ZM41.06,5.44l-3.9,8.67h3.78l2-4.53Z"/><path d="M84.56,17.21a7,7,0,0,0,4.49-6.53A6.61,6.61,0,0,0,86.58,5L86,5.79a5.7,5.7,0,0,1,2.13,4.89c0,5.08-5,6.08-5,6.08l7.1,10.15H83v0.95H92Z"/><path d="M80.47,17c0.35,0.46.59,0.83,0.59,0.83l4.65,6.62H80l-4.41-6.58H69.71v10H64.43V26.91h4.33v-10h6.15l-1.65-2.48h-7v10H61.48v-24H74c7.17,0,11.31,1.85,11.31,7.29,0,3.62-2.72,6.3-6.7,6.7L80.47,17m0-10.09c-0.24-1.77-2-2.64-5.08-2.64H66.28v6.3h2.48V6.74h9.62a11.7,11.7,0,0,1,2.13.16m0,1a10.87,10.87,0,0,0-2.13-.2H69.71v2.88h6.46c3.19,0,4.18-.91,4.33-2.68"/><polygon points="122.91 27.86 122.91 3.39 121.96 3.39 121.96 26.91 118.77 26.91 118.77 27.86 122.91 27.86"/><polygon points="119.48 24.43 119.48 0.43 115.3 0.43 115.3 17.22 99.42 0.43 94.81 0.43 94.81 24.43 98.99 24.43 98.99 6.46 101.47 9.1 101.47 26.91 97.77 26.91 97.77 27.86 102.42 27.86 102.42 10.13 115.81 24.43 119.48 24.43"/><polygon points="153.64 7.68 153.64 3.39 152.7 3.39 152.7 6.74 135.16 6.74 135.16 10.32 132.68 10.32 132.68 4.26 150.21 4.26 150.21 0.43 127.87 0.43 127.87 24.43 150.49 24.43 150.49 20.57 136.11 20.57 136.11 17.61 148.09 17.61 148.09 13.28 147.14 13.28 147.14 16.67 135.16 16.67 135.16 20.57 132.68 20.57 132.68 14.19 144.66 14.19 144.66 10.32 136.11 10.32 136.11 7.68 153.64 7.68"/><polygon points="153.92 27.86 153.92 23.52 152.97 23.52 152.97 26.91 130.83 26.91 130.83 27.86 153.92 27.86"/><path d="M183.08,6.19l-0.87-.47S181,8,180.44,9.1a15.9,15.9,0,0,0-9.3-2.76c-3.86,0-7.21.83-7.72,3.07-1.54-.31-2.56-0.95-2.56-2.33,0-2.21,3-3.23,7.33-3.23a15,15,0,0,1,9.46,3c0.36-.71,2-3.86,2-3.86A24.54,24.54,0,0,0,168,0c-8.24,0-11.74,3.86-11.74,8.2,0,10,19.31,3.19,19.31,8.79v0.16c-4.41-.75-11.9.31-14.74-2.72l-0.67.63c2.44,2.56,7.68,2.6,11,2.72a28.11,28.11,0,0,1,4.29.28c-0.59,1.73-2.68,2.92-6.9,2.92a18,18,0,0,1-10.6-3.11C157.35,19,155.77,22,155.77,22a23.6,23.6,0,0,0,11.7,2.84c7.72,0,12.69-2.72,12.69-7.92,0-8.55-10.25-6.66-15.8-7.33,0.43-1.38,2.76-2.29,6.78-2.29a14.61,14.61,0,0,1,9.62,3.27L181,10c0.35-.71,2-3.82,2-3.82"/><path d="M183.59,19.86a6.56,6.56,0,0,0-2-5.16l-0.67.71a5.68,5.68,0,0,1,1.69,4.45c0,4.77-4.53,7.45-12.21,7.45A22.78,22.78,0,0,1,159,24.51l-0.43.87a23.87,23.87,0,0,0,11.9,2.88c7.76,0,13.16-2.76,13.16-8.39"/><polygon points="211.92 7.68 211.92 3.35 210.98 3.35 210.98 6.74 201.52 6.74 201.52 26.91 197.19 26.91 197.19 27.86 202.47 27.86 202.47 7.68 211.92 7.68"/><polygon points="208.49 4.26 208.49 0.43 184.77 0.43 184.77 4.26 194.23 4.26 194.23 6.74 187.73 6.74 187.73 7.68 194.23 7.68 194.23 24.43 199.04 24.43 199.04 4.26 208.49 4.26"/></svg>